<svg xmlns="http://www.w3.org/2000/svg" width="512" height="512" viewBox="0 0 512 512"><g transform="translate(-1525 -1290)"><rect width="512" height="512" rx="76.8" transform="translate(1525 1290)" fill="#d0dcf2"/><g transform="translate(179.261 693.037)"><path d="M129.25,0C200.633,0,258.5,73.952,258.5,165.176S200.633,330.352,129.25,330.352,0,256.4,0,165.176,57.867,0,129.25,0Z" transform="translate(1486.348 700.57) rotate(7)" fill="#fddac7"/><path d="M-17545.016,7552.853c0,.839,69.3-3.877,111.77-109.227,13.412-33.274,24.15-76.665,29.188-133.25,5.871-55.375-16.779-73.834-16.779-73.834l-14.266,8.391s62.928-32.722,62.928-93.97c.838,0-74.674,37.756-162.77,8.39-74.674-24.331-77.189,60.41-77.189,60.41s-43.629-72.155-87.258,33.561,50.531,301.207,150.373,299.529c.838-1.678-53.85,4.944-101.2-65.324-47.355-98.146-18.543-159.451-18.543-159.451s44.885-74.754,109.49-17.7c26.846,24.332,71.314-15.1,71.314-15.1s51.182-26.848,67.123,41.112S-17452.721,7534.394-17545.016,7552.853Z" transform="translate(19142.998 -6505)" stroke="#000" stroke-width="10"/><g transform="translate(1470.104 786.393)"><g transform="translate(0 0)" fill="rgba(158,238,255,0.6)" stroke="#351909" stroke-width="10"><circle cx="67.309" cy="67.309" r="67.309" stroke="none"/><circle cx="67.309" cy="67.309" r="62.309" fill="none"/></g><g transform="translate(145.355 0)" fill="rgba(158,238,255,0.6)" stroke="#351909" stroke-width="10"><circle cx="67.309" cy="67.309" r="67.309" stroke="none"/><circle cx="67.309" cy="67.309" r="62.309" fill="none"/></g><line x2="18.995" transform="translate(130.076 67.309)" fill="none" stroke="#000" stroke-width="10"/></g><path d="M-17617.844,7404.292s29.365-39.434,57.893,0C-17558.273,7403.453-17589.316,7378.282-17617.844,7404.292Z" transform="translate(19126.893 -6546.058)"/><path d="M-17617.844,7404.292s29.365-39.434,57.893,0C-17558.273,7403.453-17589.316,7378.282-17617.844,7404.292Z" transform="translate(19273.074 -6546.058)"/><path d="M0,20.852s34.937-46.917,68.877,0C70.872,19.854,33.94-10.093,0,20.852Z" transform="translate(1634.162 998.635) rotate(180)"/></g></g></svg>