<svg xmlns="http://www.w3.org/2000/svg" width="307.692" height="300" data-name="adobe xd" viewBox="0 0 307.692 300"><path fill="#2e001e" d="M10,10H292.051V284.359H10Z" data-name="Path 12" transform="translate(2.821 2.821)"/><path fill="#ff2bc2" d="M0,0V300H307.692V0ZM12.821,12.821H294.872V287.179H12.821Z" data-name="Path 13"/><path fill="#ff2bc2" d="M210.711,110.372a17.6,17.6,0,0,0-7.436-1.282c-16.154,0-26.923,12.436-26.923,33.077,0,23.59,11.026,33.077,25.385,33.077a24.188,24.188,0,0,0,8.846-1.41V110.372Zm-57.436,32.821c0-29.872,19.231-53.205,50.769-53.205a56.853,56.853,0,0,1,6.667.256V56.91a1.285,1.285,0,0,1,1.282-1.282h20.641c1.026,0,1.282.385,1.282,1.026V173.833a91.315,91.315,0,0,0,.641,12.564c0,.9,0,1.026-.769,1.41a76.367,76.367,0,0,1-32.821,7.436C173.147,195.244,153.275,178.064,153.275,143.192Zm-43.718-20.769,35.9,69.615c.641,1.026.256,2.051-.769,2.051H122.378a2.516,2.516,0,0,1-2.692-1.667q-12.308-25.385-25.128-52.692H94.3c-7.692,17.18-16.154,35.9-24.359,52.821a2.462,2.462,0,0,1-2.308,1.41H46.352c-1.282,0-1.41-1.026-.769-1.795L80.711,124.6,46.737,57.423a1.135,1.135,0,0,1,.9-1.923H69.685c1.282,0,1.923.256,2.308,1.41,8.077,17.051,16.282,33.846,23.974,51.026h.256c7.436-16.923,15.641-33.974,23.462-50.769.641-1.026,1.026-1.667,2.308-1.667h20.641c1.026,0,1.41.769.769,1.923Z" data-name="Path 14" transform="translate(12.751 15.654)"/></svg>